<svg width="19" height="19" viewBox="0 0 19 19" fill="none" xmlns="http://www.w3.org/2000/svg">
<path fill-rule="evenodd" clip-rule="evenodd" d="M8.16668 12.3049C8.09689 12.5008 7.98394 12.6803 7.83539 12.8313C7.68683 12.9824 7.50611 13.1014 7.3053 13.1806C7.10449 13.2598 6.88823 13.2972 6.67099 13.2904C6.45375 13.2836 6.24054 13.2328 6.04562 13.1412L2.89676 16.1359C3.05644 16.4444 3.09583 16.7969 3.00791 17.1304C2.92 17.464 2.71049 17.7571 2.41673 17.9574C2.12297 18.1576 1.76404 18.2521 1.40391 18.224C1.04378 18.1958 0.705846 18.0469 0.450338 17.8037C0.19483 17.5605 0.0383475 17.2388 0.00877885 16.8961C-0.0207898 16.5533 0.0784763 16.2117 0.288886 15.932C0.499296 15.6524 0.807178 15.453 1.15766 15.3693C1.50815 15.2857 1.87846 15.3232 2.20261 15.4751L5.3482 12.4811C5.25347 12.3026 5.19847 12.1074 5.18664 11.9077C5.1748 11.708 5.2064 11.5082 5.27943 11.3206C5.35247 11.1331 5.46539 10.962 5.61111 10.8179C5.75683 10.6738 5.93223 10.5599 6.12633 10.4833C6.32043 10.4067 6.52905 10.369 6.73913 10.3727C6.94922 10.3763 7.15625 10.4212 7.34728 10.5045C7.5383 10.5878 7.70921 10.7078 7.8493 10.8568C7.98939 11.0059 8.09565 11.1809 8.16144 11.3708H10.4598C10.5357 11.1591 10.6618 10.9669 10.8284 10.8092C10.9949 10.6514 11.1975 10.5323 11.4202 10.461V8.2815C11.2173 8.22212 11.0297 8.12312 10.8692 7.99083C10.7088 7.85853 10.5791 7.69585 10.4884 7.51317C10.3977 7.33049 10.348 7.13181 10.3425 6.92983C10.337 6.72785 10.3759 6.527 10.4565 6.3401C10.5371 6.1532 10.6578 5.98436 10.8109 5.84435C10.9639 5.70434 11.146 5.59625 11.3454 5.52696C11.5448 5.45768 11.7572 5.42873 11.969 5.44196C12.1808 5.45519 12.3874 5.51031 12.5756 5.60381L15.7277 2.60355C15.5678 2.29535 15.528 1.94312 15.6155 1.6096C15.7029 1.27609 15.9119 0.982955 16.2053 0.782439C16.4986 0.581924 16.8572 0.48705 17.2172 0.51472C17.5772 0.542391 17.9151 0.69081 18.1708 0.933531C18.4266 1.17625 18.5835 1.49751 18.6136 1.84006C18.6436 2.18261 18.545 2.52421 18.3351 2.80398C18.1253 3.08375 17.8179 3.28352 17.4678 3.3677C17.1176 3.45188 16.7474 3.415 16.4232 3.26363L13.2606 6.27448C13.3521 6.4576 13.4024 6.6569 13.4082 6.8596C13.414 7.0623 13.3753 7.26392 13.2945 7.45154C13.2137 7.63916 13.0926 7.80863 12.9389 7.94909C12.7852 8.08955 12.6025 8.19789 12.4022 8.26718V10.4666C12.6475 10.5469 12.8672 10.6852 13.0408 10.8687C13.2143 11.0522 13.3358 11.2747 13.394 11.5152C13.4521 11.7558 13.445 12.0065 13.3731 12.2437C13.3013 12.4809 13.1672 12.6967 12.9834 12.8709C12.7997 13.0451 12.5723 13.1719 12.3228 13.2393C12.0734 13.3067 11.8099 13.3125 11.5574 13.2562C11.3049 13.1999 11.0717 13.0833 10.8796 12.9174C10.6876 12.7515 10.5431 12.5418 10.4598 12.308L8.16668 12.3049Z" fill="#95B03C"/>
<path fill-rule="evenodd" clip-rule="evenodd" d="M3.05269 1.95744C3.05269 2.24478 2.96317 2.52566 2.79546 2.76458C2.62774 3.00349 2.38936 3.1897 2.11045 3.29966C1.83155 3.40961 1.52465 3.43839 1.22857 3.38233C0.932489 3.32627 0.66052 3.18791 0.447057 2.98473C0.233594 2.78155 0.0882236 2.52269 0.0293292 2.24087C-0.0295652 1.95905 0.000661246 1.66694 0.116187 1.40148C0.231712 1.13601 0.427347 0.909117 0.678354 0.749481C0.92936 0.589845 1.22446 0.504639 1.52635 0.504639C1.93116 0.504639 2.31939 0.657701 2.60564 0.930154C2.89188 1.20261 3.05269 1.57213 3.05269 1.95744ZM3.05269 6.89685C3.05269 7.18421 2.96316 7.46512 2.79541 7.70405C2.62766 7.94297 2.38924 8.12918 2.1103 8.23912C1.83136 8.34906 1.52443 8.3778 1.22833 8.32169C0.932232 8.26558 0.660263 8.12715 0.446826 7.92391C0.233388 7.72067 0.0880698 7.46175 0.0292494 7.17989C-0.0295711 6.89804 0.000748597 6.60591 0.116374 6.34045C0.232 6.075 0.427739 5.84814 0.678831 5.68858C0.929923 5.52902 1.22509 5.44392 1.527 5.44404C1.93165 5.44437 2.31961 5.59756 2.60568 5.86996C2.89174 6.14236 3.05252 6.5117 3.05269 6.89685ZM8.24279 6.89685C8.24279 7.18418 8.15327 7.46507 7.98555 7.70398C7.81784 7.94289 7.57946 8.1291 7.30055 8.23906C7.02165 8.34902 6.71475 8.37779 6.41867 8.32173C6.12259 8.26568 5.85062 8.12731 5.63716 7.92413C5.42369 7.72096 5.27832 7.46209 5.21943 7.18027C5.16053 6.89846 5.19076 6.60635 5.30629 6.34088C5.42181 6.07542 5.61745 5.84852 5.86845 5.68888C6.11946 5.52925 6.41456 5.44404 6.71645 5.44404C7.1212 5.44421 7.50934 5.59733 7.79554 5.86974C8.08175 6.14216 8.24262 6.51159 8.24279 6.89685ZM8.24279 1.95744C8.24279 2.24478 8.15327 2.52566 7.98555 2.76458C7.81784 3.00349 7.57946 3.1897 7.30055 3.29966C7.02165 3.40961 6.71475 3.43839 6.41867 3.38233C6.12259 3.32627 5.85062 3.18791 5.63716 2.98473C5.42369 2.78155 5.27832 2.52269 5.21943 2.24087C5.16053 1.95905 5.19076 1.66694 5.30629 1.40148C5.42181 1.13601 5.61745 0.909117 5.86845 0.749481C6.11946 0.589845 6.41456 0.504639 6.71645 0.504639C7.1212 0.504804 7.50934 0.657919 7.79554 0.930337C8.08175 1.20275 8.24262 1.57218 8.24279 1.95744ZM13.4113 1.95744C13.4113 2.24467 13.3218 2.52546 13.1542 2.76432C12.9866 3.00317 12.7484 3.18938 12.4697 3.29942C12.1909 3.40945 11.8841 3.43836 11.5881 3.38251C11.2921 3.32665 11.0202 3.18853 10.8066 2.98561C10.593 2.78268 10.4474 2.52404 10.3883 2.24239C10.3291 1.96074 10.3589 1.66871 10.474 1.4032C10.5892 1.13769 10.7844 0.910625 11.0351 0.750689C11.2857 0.590754 11.5806 0.505131 11.8823 0.504639C12.2871 0.504639 12.6754 0.657701 12.9616 0.930154C13.2479 1.20261 13.4087 1.57213 13.4087 1.95744H13.4113ZM18.625 6.89685C18.625 7.18421 18.5354 7.46512 18.3677 7.70405C18.1999 7.94297 17.9615 8.12918 17.6826 8.23912C17.4036 8.34906 17.0967 8.3778 16.8006 8.32169C16.5045 8.26558 16.2325 8.12715 16.0191 7.92391C15.8056 7.72067 15.6603 7.46175 15.6015 7.17989C15.5427 6.89804 15.573 6.60591 15.6886 6.34045C15.8043 6.075 16 5.84814 16.2511 5.68858C16.5022 5.52902 16.7973 5.44392 17.0993 5.44404C17.5035 5.44487 17.8909 5.59829 18.1764 5.87066C18.462 6.14302 18.6223 6.51208 18.6223 6.89685H18.625ZM18.625 11.8369C18.625 12.1242 18.5354 12.4051 18.3677 12.6441C18.1999 12.883 17.9615 13.0692 17.6826 13.1792C17.4036 13.2891 17.0967 13.3178 16.8006 13.2617C16.5045 13.2056 16.2325 13.0672 16.0191 12.8639C15.8056 12.6607 15.6603 12.4018 15.6015 12.1199C15.5427 11.8381 15.573 11.5459 15.6886 11.2805C15.8043 11.015 16 10.7882 16.2511 10.6286C16.5022 10.4691 16.7973 10.3839 17.0993 10.3841C17.5037 10.3849 17.8913 10.5385 18.1769 10.8111C18.4625 11.0838 18.6227 11.4531 18.6223 11.8381L18.625 11.8369ZM18.625 16.7769C18.6252 17.0642 18.536 17.3451 18.3685 17.5842C18.201 17.8232 17.9628 18.0096 17.6841 18.1198C17.4053 18.23 17.0985 18.2591 16.8024 18.2033C16.5062 18.1476 16.2341 18.0095 16.0205 17.8065C15.8068 17.6036 15.6611 17.3449 15.6019 17.0632C15.5427 16.7815 15.5726 16.4893 15.6878 16.2238C15.8029 15.9582 15.9983 15.7311 16.249 15.5712C16.4998 15.4113 16.7948 15.3257 17.0966 15.3253C17.5012 15.3253 17.8891 15.4783 18.1752 15.7505C18.4613 16.0227 18.6222 16.3919 18.6223 16.7769H18.625ZM13.4113 16.7769C13.4116 17.0642 13.3223 17.3451 13.1549 17.5841C12.9874 17.8231 12.7493 18.0095 12.4706 18.1198C12.1918 18.23 11.885 18.2591 11.5889 18.2034C11.2928 18.1477 11.0208 18.0096 10.8071 17.8068C10.5934 17.6039 10.4476 17.3452 10.3884 17.0636C10.3291 16.7819 10.3588 16.4898 10.4739 16.2242C10.589 15.9586 10.7842 15.7315 11.0349 15.5715C11.2856 15.4115 11.5805 15.3258 11.8823 15.3253C12.2869 15.3253 12.675 15.4782 12.9612 15.7504C13.2474 16.0226 13.4083 16.3918 13.4087 16.7769H13.4113ZM8.24279 16.7769C8.24305 17.0643 8.15375 17.3453 7.98619 17.5844C7.81863 17.8235 7.58034 18.0099 7.30146 18.12C7.02258 18.2302 6.71564 18.2591 6.41947 18.2032C6.12331 18.1473 5.85121 18.009 5.63762 17.8059C5.42403 17.6027 5.27853 17.3439 5.21952 17.062C5.16052 16.7802 5.19067 16.488 5.30616 16.2225C5.42165 15.9569 5.61728 15.73 5.86832 15.5703C6.11935 15.4106 6.41451 15.3253 6.71645 15.3253C7.12098 15.3255 7.50891 15.4785 7.79508 15.7506C8.08125 16.0228 8.24227 16.3919 8.24279 16.7769ZM3.05269 11.8381C3.05269 12.1255 2.96316 12.4064 2.79541 12.6453C2.62766 12.8842 2.38924 13.0705 2.1103 13.1804C1.83136 13.2903 1.52443 13.3191 1.22833 13.263C0.932232 13.2069 0.660263 13.0684 0.446826 12.8652C0.233388 12.6619 0.0880698 12.403 0.0292494 12.1212C-0.0295711 11.8393 0.000748597 11.5472 0.116374 11.2817C0.232 11.0163 0.427739 10.7894 0.678831 10.6299C0.929923 10.4703 1.22509 10.3852 1.527 10.3853C1.93165 10.3856 2.31961 10.5388 2.60568 10.8112C2.89174 11.0836 3.05252 11.453 3.05269 11.8381Z" fill="#3C3C3B"/>
</svg>
